<?xml version="1.0" encoding="UTF-8"?>
<svg version="1.1" xmlns="http://www.w3.org/2000/svg" width="32" height="32">
<path d="M0 0 C1.134375 0.020625 2.26875 0.04125 3.4375 0.0625 C3.71722656 0.68898438 3.99695313 1.31546875 4.28515625 1.9609375 C5.52890817 4.49643177 6.75419848 6.79151217 8.4375 9.0625 C11.99422179 10.2813121 11.99422179 10.2813121 15.4375 11.0625 C18.24005909 15.04032581 18.88559177 18.24551346 18.4375 23.0625 C16.63478218 24.86521782 13.99341251 24.27752284 11.5625 24.3125 C9.95761719 24.35117187 9.95761719 24.35117187 8.3203125 24.390625 C5.4375 24.0625 5.4375 24.0625 3.5546875 22.546875 C3.18601562 22.05703125 2.81734375 21.5671875 2.4375 21.0625 C1.7775 22.0525 1.1175 23.0425 0.4375 24.0625 C-2.56640625 24.390625 -2.56640625 24.390625 -6.125 24.3125 C-7.30191406 24.29703125 -8.47882812 24.2815625 -9.69140625 24.265625 C-12.5625 24.0625 -12.5625 24.0625 -13.5625 23.0625 C-14.34456155 17.21052218 -12.02425089 13.58501779 -9.125 8.75 C-8.70412109 8.02232422 -8.28324219 7.29464844 -7.84960938 6.54492188 C-4.07901277 0.07156163 -4.07901277 0.07156163 0 0 Z " fill="#69164F" transform="translate(13.5625,3.9375)"/>
<path d="M0 0 C1.134375 0.020625 2.26875 0.04125 3.4375 0.0625 C6.66015625 5.3359375 6.66015625 5.3359375 7.4375 7.0625 C7.1075 7.7225 6.7775 8.3825 6.4375 9.0625 C5.66019531 9.16949219 4.88289063 9.27648438 4.08203125 9.38671875 C1.27784992 9.82966915 1.27784992 9.82966915 -0.36328125 12.20703125 C-1.11158203 13.52767578 -1.11158203 13.52767578 -1.875 14.875 C-2.38675781 15.74769531 -2.89851562 16.62039062 -3.42578125 17.51953125 C-4.83455953 20.20688372 -4.83455953 20.20688372 -4.5625 24.0625 C-10.71484375 24.16015625 -10.71484375 24.16015625 -12.5625 24.0625 C-13.5625 23.0625 -13.5625 23.0625 -13.90234375 20.51953125 C-13.44301989 15.84709889 -11.50915266 12.72599966 -9.125 8.75 C-8.70412109 8.02232422 -8.28324219 7.29464844 -7.84960938 6.54492188 C-4.07901277 0.07156163 -4.07901277 0.07156163 0 0 Z " fill="#E83453" transform="translate(13.5625,3.9375)"/>
<path d="M0 0 C1.65 0 3.3 0 5 0 C7.91814355 4.55959929 9.66476796 7.4159491 9 13 C8 14 8 14 5.27734375 14.09765625 C3.62412109 14.08025391 3.62412109 14.08025391 1.9375 14.0625 C0.83277344 14.05347656 -0.27195312 14.04445313 -1.41015625 14.03515625 C-2.69212891 14.01775391 -2.69212891 14.01775391 -4 14 C-2.265625 9.1640625 -2.265625 9.1640625 0.125 7.6875 C1.053125 7.3471875 1.053125 7.3471875 2 7 C1.67 6.401875 1.34 5.80375 1 5.1875 C0 3 0 3 0 0 Z " fill="#A20254" transform="translate(23,14)"/>
<path d="M0 0 C3.625 -0.1875 3.625 -0.1875 7 0 C10.22265625 5.2734375 10.22265625 5.2734375 11 7 C10.67 7.66 10.34 8.32 10 9 C5.71 8.67 1.42 8.34 -3 8 C-2 3 -2 3 0 0 Z " fill="#F06A31" transform="translate(10,4)"/>
<path d="M0 0 C0.33 0.66 0.66 1.32 1 2 C2.65614657 2.38218767 4.32457024 2.71395102 6 3 C6.66 3.33 7.32 3.66 8 4 C7.67 6.31 7.34 8.62 7 11 C0.84765625 11.09765625 0.84765625 11.09765625 -1 11 C-2 10 -2 10 -2.1875 7.1875 C-2.00782439 4.13301456 -1.57664404 2.56204656 0 0 Z " fill="#E51565" transform="translate(2,17)"/>
<path d="M0 0 C2.3125 -0.3125 2.3125 -0.3125 5 0 C7.63560713 3.27178817 8 4.72068147 8 9 C5.6875 8.8125 5.6875 8.8125 3 8 C0.79029126 5.10451959 0 3.66842255 0 0 Z " fill="#EF6535" transform="translate(23,14)"/>
<path d="M0 0 C2.97 0.495 2.97 0.495 6 1 C6 1.99 6 2.98 6 4 C4.46875 5.38671875 4.46875 5.38671875 2.5 6.6875 C1.52546875 7.34298828 1.52546875 7.34298828 0.53125 8.01171875 C0.0259375 8.33785156 -0.479375 8.66398437 -1 9 C-2.1875 6.75 -2.1875 6.75 -3 4 C-1.625 1.6875 -1.625 1.6875 0 0 Z " fill="#3F254C" transform="translate(16,12)"/>
<path d="M0 0 C0.33 0.66 0.66 1.32 1 2 C3.97 2 6.94 2 10 2 C8.515 4.475 8.515 4.475 7 7 C4.07120629 6.37240135 1.63904371 5.41377341 -1 4 C-0.67 2.68 -0.34 1.36 0 0 Z " fill="#EC5F38" transform="translate(6,10)"/>
<path d="M0 0 C0.99 0.66 1.98 1.32 3 2 C2.690625 2.598125 2.38125 3.19625 2.0625 3.8125 C0.89790296 6.08956772 0.89790296 6.08956772 0 9 C-1.32 9 -2.64 9 -4 9 C-3.35455571 5.51460083 -1.89865603 2.97180943 0 0 Z " fill="#651650" transform="translate(12,18)"/>
<path d="M0 0 C2.31 0 4.62 0 7 0 C6.6875 1.9375 6.6875 1.9375 6 4 C2.86650268 5.04449911 2.01031744 4.93423645 -1 4 C-0.67 2.68 -0.34 1.36 0 0 Z " fill="#F69418" transform="translate(10,4)"/>
<path d="M0 0 C0.66 1.32 1.32 2.64 2 4 C-2.75 8.875 -2.75 8.875 -5 10 C-5.75 8.25 -5.75 8.25 -6 6 C-4.1875 3.75 -4.1875 3.75 -2 2 C-1.34 2 -0.68 2 0 2 C0 1.34 0 0.68 0 0 Z " fill="#860A52" transform="translate(23,17)"/>
<path d="M0 0 C0.66 0.66 1.32 1.32 2 2 C0.9375 3.5625 0.9375 3.5625 -1 5 C-4.6875 4.6875 -4.6875 4.6875 -8 4 C-8 3.01 -8 2.02 -8 1 C-6.576875 1.309375 -6.576875 1.309375 -5.125 1.625 C-4.09375 1.74875 -3.0625 1.8725 -2 2 C-1.34 1.34 -0.68 0.68 0 0 Z " fill="#F37E26" transform="translate(17,6)"/>
<path d="M0 0 C0.66 0 1.32 0 2 0 C1.125 4.875 1.125 4.875 0 6 C-1.66617115 6.04063832 -3.33388095 6.042721 -5 6 C-4.01 5.67 -3.02 5.34 -2 5 C-1.33820153 3.01954441 -1.33820153 3.01954441 -1 1 C-0.67 0.67 -0.34 0.34 0 0 Z " fill="#800C51" transform="translate(14,22)"/>
<path d="M0 0 C2.97 0.99 5.94 1.98 9 3 C8.67 3.66 8.34 4.32 8 5 C5.07120629 4.37240135 2.63904371 3.41377341 0 2 C0 1.34 0 0.68 0 0 Z " fill="#E94D43" transform="translate(5,12)"/>
</svg>
