<?xml version="1.0" encoding="UTF-8"?>
<svg version="1.1" xmlns="http://www.w3.org/2000/svg" width="250" height="133">
<path d="M0 0 C8.08824745 5.89386387 12.78252573 16.89942896 17.5 25.4375 C18.11939453 26.54287109 18.73878906 27.64824219 19.37695312 28.78710938 C21.90760125 33.3345824 24.34602428 37.74855076 26.1875 42.625 C26.89261719 42.30402344 27.59773438 41.98304687 28.32421875 41.65234375 C31.37519612 40.55765473 33.76693897 40.25953413 37 40.1875 C38.46373047 40.12755859 38.46373047 40.12755859 39.95703125 40.06640625 C45.82277173 41.08067576 49.579239 43.51119066 53.19750977 48.2668457 C55.25891129 51.45860313 57.17745689 54.70117455 59.0625 58 C59.72507812 59.11117187 60.38765625 60.22234375 61.0703125 61.3671875 C65.56784479 69.04590116 69.10851443 75.34453584 67.79296875 84.4140625 C66.4667628 89.25685326 63.64486325 92.53197756 59.6875 95.5 C53.27278836 98.38662024 46.33248722 97.84428736 39.4375 97.875 C38.29539062 97.895625 37.15328125 97.91625 35.9765625 97.9375 C21.44964468 98.00429043 21.44964468 98.00429043 15.58691406 93.35595703 C10.30405284 87.75019548 6.89898779 80.447042 3.1875 73.75 C1.81722434 71.29160207 0.44212093 68.83597788 -0.9375 66.3828125 C-1.26669434 65.7967926 -1.59588867 65.21077271 -1.93505859 64.60699463 C-4.66779818 59.78602629 -7.63408451 55.1623687 -10.8125 50.625 C-11.70765751 53.50487542 -12.16743792 55.69764909 -11.06738281 58.57177734 C-9.92534632 60.7009546 -8.70967589 62.75846601 -7.4375 64.8125 C-6.59440448 66.22149145 -5.75318017 67.63160469 -4.9140625 69.04296875 C-4.53588379 69.65938232 -4.15770508 70.2757959 -3.76806641 70.91088867 C-1.30774577 75.32425382 -1.35785847 79.71655538 -1.8125 84.625 C-3.60224681 89.79537968 -6.37329124 92.49144088 -10.8125 95.625 C-17.35006468 98.31026948 -23.93071394 97.96110315 -30.86987305 97.94067383 C-33.10841015 97.93752335 -35.34561112 97.96097319 -37.58398438 97.98632812 C-54.69957051 98.06397282 -54.69957051 98.06397282 -60.37988281 93.31445312 C-64.37385575 88.9361706 -65.8125 84.77262229 -65.8125 78.9375 C-65.24061079 75.38994752 -63.91144516 72.7075114 -62.15625 69.5859375 C-61.34414063 68.13102905 -61.34414063 68.13102905 -60.515625 66.64672852 C-59.95359375 65.64955811 -59.3915625 64.6523877 -58.8125 63.625 C-57.75993361 61.72552801 -56.70785065 59.82578806 -55.65625 57.92578125 C-49.64900108 47.15014982 -43.58018149 36.41305253 -37.375 25.75 C-36.82070312 24.79520752 -36.26640625 23.84041504 -35.6953125 22.85668945 C-34.08496149 20.10205275 -32.45522833 17.36044254 -30.8125 14.625 C-30.22194824 13.6359668 -29.63139648 12.64693359 -29.02294922 11.62792969 C-28.42627441 10.65500977 -27.82959961 9.68208984 -27.21484375 8.6796875 C-26.68238037 7.80554199 -26.14991699 6.93139648 -25.60131836 6.03076172 C-19.7835056 -1.79354931 -8.9698608 -4.35211925 0 0 Z " fill="#ED4946" transform="translate(123.8125,1.375)"/>
<path d="M0 0 C3.50742018 1.94395477 6.21505473 4.22803375 8.8125 7.3125 C8.8125 7.9725 8.8125 8.6325 8.8125 9.3125 C9.51761719 8.99152344 10.22273438 8.67054687 10.94921875 8.33984375 C14.00019612 7.24515473 16.39193897 6.94703413 19.625 6.875 C21.08873047 6.81505859 21.08873047 6.81505859 22.58203125 6.75390625 C28.44777173 7.76817576 32.204239 10.19869066 35.82250977 14.9543457 C37.88391129 18.14610313 39.80245689 21.38867455 41.6875 24.6875 C42.35007812 25.79867187 43.01265625 26.90984375 43.6953125 28.0546875 C48.19284479 35.73340116 51.73351443 42.03203584 50.41796875 51.1015625 C49.0917628 55.94435326 46.26986325 59.21947756 42.3125 62.1875 C35.89778836 65.07412024 28.95748722 64.53178736 22.0625 64.5625 C20.92039063 64.583125 19.77828125 64.60375 18.6015625 64.625 C4.06002087 64.69185766 4.06002087 64.69185766 -1.78808594 60.0390625 C-7.04098297 54.45281529 -10.46908039 47.21798276 -14.1875 40.5625 C-14.87952196 39.33815346 -15.57222655 38.1141925 -16.265625 36.890625 C-17.61696094 34.50391793 -18.95336767 32.10970055 -20.28051758 29.70947266 C-21.51525986 27.50998422 -22.78662707 25.33049747 -24.1003418 23.17724609 C-28.30641354 16.13039314 -28.30641354 16.13039314 -27.70703125 12.0078125 C-27.14371094 11.15960938 -26.58039063 10.31140625 -26 9.4375 C-25.1028125 8.08398438 -25.1028125 8.08398438 -24.1875 6.703125 C-17.88712805 -0.82778835 -9.26715553 -4.35275487 0 0 Z " fill="#7A0E51" transform="translate(141.1875,34.6875)"/>
<path d="M0 0 C0.66 0 1.32 0 2 0 C3.65000386 2.93517601 5.29427432 5.87352474 6.9375 8.8125 C7.40607422 9.64587891 7.87464844 10.47925781 8.35742188 11.33789062 C9.0293457 12.54155273 9.0293457 12.54155273 9.71484375 13.76953125 C10.12855225 14.50792236 10.54226074 15.24631348 10.96850586 16.00708008 C13.36343732 20.63425772 13.47195504 24.90463359 13 30 C11.21025319 35.17037968 8.43920876 37.86644088 4 41 C-1.55164404 43.49608802 -6.91451867 43.22999493 -12.875 43.125 C-13.84953125 43.11597656 -14.8240625 43.10695312 -15.828125 43.09765625 C-18.21900728 43.07421623 -20.60937261 43.04140442 -23 43 C-23 42.67 -23 42.34 -23 42 C-18.05 41.505 -18.05 41.505 -13 41 C-13.66 40.484375 -14.32 39.96875 -15 39.4375 C-17.09465232 36.88464249 -17.72334608 35.45367801 -17.5 32.15234375 C-15.25612448 22.49316085 -8.34509886 13.52735523 -3.07421875 5.2734375 C-1.08937251 2.26289209 -1.08937251 2.26289209 0 0 Z " fill="#721251" transform="translate(109,56)"/>
<path d="M0 0 C1.47726563 -0.05994141 1.47726563 -0.05994141 2.984375 -0.12109375 C8.64116431 0.84651495 12.51773427 3.2813243 16.12060547 7.76586914 C17.97281916 10.51487771 19.65672314 13.31621064 21.3125 16.1875 C21.90482422 17.13882813 22.49714844 18.09015625 23.10742188 19.0703125 C26.30083165 24.49799384 27.96068327 28.36296828 26.97045898 34.66894531 C26.25 36.4375 26.25 36.4375 23.25 38.4375 C18.7777161 39.1701027 15.16571349 38.868424 11.0625 36.9375 C4.59500029 31.18861137 0.51372091 23.72487419 -3.5625 16.1875 C-4.05169922 15.30320312 -4.54089844 14.41890625 -5.04492188 13.5078125 C-8.92925812 6.39458818 -8.92925812 6.39458818 -9.75 2.4375 C-6.45062021 0.48143913 -3.81725574 0.08405874 0 0 Z " fill="#EE573D" transform="translate(160.75,41.5625)"/>
<path d="M0 0 C3.27642756 0.25866533 4.60820723 0.55416685 6.8125 3.0625 C7.204375 3.701875 7.59625 4.34125 8 5 C8.66 3.35 9.32 1.7 10 0 C11.32 0.33 12.64 0.66 14 1 C14.02685938 3.14576637 14.04633088 5.29162645 14.0625 7.4375 C14.07410156 8.63246094 14.08570312 9.82742187 14.09765625 11.05859375 C14 14 14 14 13 15 C10.6875 15.4375 10.6875 15.4375 8 15 C5.6875 12 5.6875 12 4 9 C3.67 10.98 3.34 12.96 3 15 C1.68 15 0.36 15 -1 15 C-1.02685412 12.68756208 -1.04632841 10.3750373 -1.0625 8.0625 C-1.07410156 6.77472656 -1.08570313 5.48695312 -1.09765625 4.16015625 C-1 1 -1 1 0 0 Z " fill="#58194F" transform="translate(64,118)"/>
<path d="M0 0 C0.87269531 -0.02578125 1.74539062 -0.0515625 2.64453125 -0.078125 C5.62654377 0.30665081 6.9646114 1.28100777 9.1875 3.25 C9.001875 4.301875 8.81625 5.35375 8.625 6.4375 C8.23670669 9.82119882 8.30502515 12.01425888 9.1875 15.25 C6.8125 14.9375 6.8125 14.9375 4.1875 14.25 C3.5275 13.26 2.8675 12.27 2.1875 11.25 C1.1975 10.92 0.2075 10.59 -0.8125 10.25 C-0.8125 11.9 -0.8125 13.55 -0.8125 15.25 C-2.4625 14.92 -4.1125 14.59 -5.8125 14.25 C-5.83935938 12.10423363 -5.85883088 9.95837355 -5.875 7.8125 C-5.88660156 6.61753906 -5.89820312 5.42257813 -5.91015625 4.19140625 C-5.75412518 -0.50824966 -4.27118479 0.07504278 0 0 Z M-0.8125 4.25 C-0.8125 4.91 -0.8125 5.57 -0.8125 6.25 C0.8375 6.25 2.4875 6.25 4.1875 6.25 C4.1875 5.59 4.1875 4.93 4.1875 4.25 C2.5375 4.25 0.8875 4.25 -0.8125 4.25 Z " fill="#58194F" transform="translate(108.8125,117.75)"/>
<path d="M0 0 C0.79921875 0.11085938 1.5984375 0.22171875 2.421875 0.3359375 C3.32679688 0.47902344 3.32679688 0.47902344 4.25 0.625 C5.25 5.375 5.25 5.375 5.25 7.625 C5.311875 8.45 5.37375 9.275 5.4375 10.125 C5.375625 10.95 5.31375 11.775 5.25 12.625 C2.25261059 14.62325961 1.61652492 14.90050398 -1.75 14.875 C-2.430625 14.88015625 -3.11125 14.8853125 -3.8125 14.890625 C-5.75 14.625 -5.75 14.625 -8.75 12.625 C-8.564375 11.820625 -8.37875 11.01625 -8.1875 10.1875 C-8.043125 9.341875 -7.89875 8.49625 -7.75 7.625 C-8.08 7.295 -8.41 6.965 -8.75 6.625 C-8.79063832 4.95882885 -8.792721 3.29111905 -8.75 1.625 C-5.5750906 -0.2828584 -3.64414789 -0.5359041 0 0 Z M-3.75 3.625 C-3.09 4.285 -2.43 4.945 -1.75 5.625 C-0.76 5.295 0.23 4.965 1.25 4.625 C-0.4 4.295 -2.05 3.965 -3.75 3.625 Z M-5.75 8.625 C-5.42 9.285 -5.09 9.945 -4.75 10.625 C-3.1 10.625 -1.45 10.625 0.25 10.625 C-2.56509993 8.3476499 -2.56509993 8.3476499 -5.75 8.625 Z " fill="#58194F" transform="translate(182.75,118.375)"/>
<path d="M0 0 C1.65322266 0.01740234 1.65322266 0.01740234 3.33984375 0.03515625 C4.99693359 0.04869141 4.99693359 0.04869141 6.6875 0.0625 C7.54214844 0.07410156 8.39679688 0.08570312 9.27734375 0.09765625 C9.60734375 1.41765625 9.93734375 2.73765625 10.27734375 4.09765625 C7.30734375 4.09765625 4.33734375 4.09765625 1.27734375 4.09765625 C1.27734375 4.75765625 1.27734375 5.41765625 1.27734375 6.09765625 C3.91734375 6.09765625 6.55734375 6.09765625 9.27734375 6.09765625 C9.27734375 7.08765625 9.27734375 8.07765625 9.27734375 9.09765625 C6.63734375 9.09765625 3.99734375 9.09765625 1.27734375 9.09765625 C1.27734375 9.75765625 1.27734375 10.41765625 1.27734375 11.09765625 C4.24734375 11.09765625 7.21734375 11.09765625 10.27734375 11.09765625 C9.94734375 12.41765625 9.61734375 13.73765625 9.27734375 15.09765625 C7.29824977 15.12452178 5.31905404 15.14399 3.33984375 15.16015625 C2.23769531 15.17175781 1.13554688 15.18335938 0 15.1953125 C-2.72265625 15.09765625 -2.72265625 15.09765625 -3.72265625 14.09765625 C-3.82158565 11.93284828 -3.85236725 9.7647184 -3.84765625 7.59765625 C-3.85023437 6.41171875 -3.8528125 5.22578125 -3.85546875 4.00390625 C-3.67852412 0.13194132 -3.67852412 0.13194132 0 0 Z " fill="#58194F" transform="translate(87.72265625,117.90234375)"/>
<path d="M0 0 C1 1 1 1 1.09765625 3.94140625 C1.08605469 5.13636719 1.07445312 6.33132812 1.0625 7.5625 C1.05347656 8.76003906 1.04445313 9.95757812 1.03515625 11.19140625 C1.02355469 12.11824219 1.01195312 13.04507813 1 14 C-0.32 14.33 -1.64 14.66 -3 15 C-3.33 14.01 -3.66 13.02 -4 12 C-5.98 12 -7.96 12 -10 12 C-10 12.99 -10 13.98 -10 15 C-11.32 15 -12.64 15 -14 15 C-13.91231752 13.4156683 -13.80412671 11.83246433 -13.6875 10.25 C-13.60048828 8.92742187 -13.60048828 8.92742187 -13.51171875 7.578125 C-12.9243263 4.6187432 -12.06538841 3.17822436 -10 1 C-6.50615721 -0.16461426 -3.66344611 -0.13568319 0 0 Z M-7 4 C-7.33 5.32 -7.66 6.64 -8 8 C-6.68 8 -5.36 8 -4 8 C-4 6.68 -4 5.36 -4 4 C-4.99 4 -5.98 4 -7 4 Z " fill="#58194F" transform="translate(14,118)"/>
<path d="M0 0 C2.4375 1.5 2.4375 1.5 4 4 C4.57853498 6.96424623 4.39353376 8.90092167 4 12 C2.5 14 2.5 14 0 15 C-4.30281421 15.52811201 -7.28540129 15.47639914 -11 13 C-11.80142672 9.94456065 -12.27998332 8.0506516 -12 5 C-8.70961032 0.06441548 -5.8031904 -0.94961297 0 0 Z M-6 4 C-7.28322547 5.0595877 -7.28322547 5.0595877 -7.125 7.5 C-7.28322547 9.9404123 -7.28322547 9.9404123 -6 11 C-4.33382885 11.04063832 -2.66611905 11.042721 -1 11 C-0.32041397 8.60280568 -0.32041397 8.60280568 0 6 C-0.66 5.34 -1.32 4.68 -2 4 C-3.32 4 -4.64 4 -6 4 Z " fill="#58194F" transform="translate(226,118)"/>
<path d="M0 0 C0.80824219 0.10183594 1.61648437 0.20367187 2.44921875 0.30859375 C3.06410156 0.39238281 3.67898437 0.47617188 4.3125 0.5625 C4.6425 2.2125 4.9725 3.8625 5.3125 5.5625 C2.3425 5.2325 -0.6275 4.9025 -3.6875 4.5625 C-4.76834521 8.19869656 -4.76834521 8.19869656 -4.6875 10.5625 C-3.6975 10.2325 -2.7075 9.9025 -1.6875 9.5625 C-1.6875 8.5725 -1.6875 7.5825 -1.6875 6.5625 C0.6225 6.5625 2.9325 6.5625 5.3125 6.5625 C5.5 9.4375 5.5 9.4375 5.3125 12.5625 C1.59790129 15.03889914 -1.38468579 15.09061201 -5.6875 14.5625 C-8.1875 13.5625 -8.1875 13.5625 -9.6875 11.5625 C-10.41004142 7.11609126 -10.21245028 4.34992541 -7.6875 0.5625 C-4.59271121 -0.46909626 -3.16118607 -0.41232862 0 0 Z " fill="#58194F" transform="translate(132.6875,118.4375)"/>
<path d="M0 0 C1.65322266 0.01740234 1.65322266 0.01740234 3.33984375 0.03515625 C4.99693359 0.04869141 4.99693359 0.04869141 6.6875 0.0625 C7.54214844 0.07410156 8.39679687 0.08570312 9.27734375 0.09765625 C9.27734375 1.41765625 9.27734375 2.73765625 9.27734375 4.09765625 C6.30734375 4.09765625 3.33734375 4.09765625 0.27734375 4.09765625 C0.27734375 4.75765625 0.27734375 5.41765625 0.27734375 6.09765625 C2.91734375 6.09765625 5.55734375 6.09765625 8.27734375 6.09765625 C8.27734375 7.08765625 8.27734375 8.07765625 8.27734375 9.09765625 C5.63734375 9.09765625 2.99734375 9.09765625 0.27734375 9.09765625 C0.27734375 9.75765625 0.27734375 10.41765625 0.27734375 11.09765625 C3.24734375 11.09765625 6.21734375 11.09765625 9.27734375 11.09765625 C9.27734375 12.41765625 9.27734375 13.73765625 9.27734375 15.09765625 C4.98734375 15.09765625 0.69734375 15.09765625 -3.72265625 15.09765625 C-3.74951037 12.78521833 -3.76898466 10.47269355 -3.78515625 8.16015625 C-3.79675781 6.87238281 -3.80835938 5.58460937 -3.8203125 4.2578125 C-3.69282925 0.13245442 -3.69282925 0.13245442 0 0 Z " fill="#58194F" transform="translate(47.72265625,117.90234375)"/>
<path d="M0 0 C2.0625 0.4375 2.0625 0.4375 4 1 C4 2.32 4 3.64 4 5 C5.65 5 7.3 5 9 5 C9.33 3.35 9.66 1.7 10 0 C10.99 0 11.98 0 13 0 C13 4.95 13 9.9 13 15 C11.68 15 10.36 15 9 15 C9 13.02 9 11.04 9 9 C7.35 9 5.7 9 4 9 C4 10.65 4 12.3 4 14 C2.35 14.33 0.7 14.66 -1 15 C-1.02685412 12.68756208 -1.04632841 10.3750373 -1.0625 8.0625 C-1.07410156 6.77472656 -1.08570313 5.48695312 -1.09765625 4.16015625 C-1 1 -1 1 0 0 Z " fill="#58194F" transform="translate(195,118)"/>
<path d="M0 0 C0.77988281 -0.01417969 1.55976563 -0.02835937 2.36328125 -0.04296875 C4.8907668 0.20765587 6.50468031 0.92376228 8.6875 2.1875 C8.98046875 8.2421875 8.98046875 8.2421875 8.6875 10.1875 C5.0433226 12.6169516 2.97508728 12.34929575 -1.3125 12.1875 C-1.3125 13.1775 -1.3125 14.1675 -1.3125 15.1875 C-2.6325 15.1875 -3.9525 15.1875 -5.3125 15.1875 C-5.33935412 12.87506208 -5.35882841 10.5625373 -5.375 8.25 C-5.38660156 6.96222656 -5.39820313 5.67445312 -5.41015625 4.34765625 C-5.26551457 -0.33294861 -4.27290064 0.03496645 0 0 Z M-1.3125 4.1875 C-1.3125 5.5075 -1.3125 6.8275 -1.3125 8.1875 C0.3375 8.1875 1.9875 8.1875 3.6875 8.1875 C3.6875 6.8675 3.6875 5.5475 3.6875 4.1875 C2.0375 4.1875 0.3875 4.1875 -1.3125 4.1875 Z " fill="#58194F" transform="translate(241.3125,117.8125)"/>
<path d="M0 0 C2.375 0.3125 2.375 0.3125 5 1 C5.66 1.99 6.32 2.98 7 4 C7.598125 3.34 8.19625 2.68 8.8125 2 C11 0 11 0 14 0 C13.42770134 4.00609065 12.06310411 6.56149315 10 10 C9.29329272 12.69254991 9.29329272 12.69254991 9 15 C7.68 15 6.36 15 5 15 C4.731875 13.948125 4.46375 12.89625 4.1875 11.8125 C3.12648043 8.40606874 1.83773523 6.00720311 0 3 C0 2.01 0 1.02 0 0 Z " fill="#58194F" transform="translate(143,118)"/>
<path d="M0 0 C1.98 0.495 1.98 0.495 4 1 C4 5.29 4 9.58 4 14 C2.68 14.33 1.36 14.66 0 15 C-1 14 -1 14 -1.1328125 11.09375 C-1.13023438 9.9078125 -1.12765625 8.721875 -1.125 7.5 C-1.12757812 6.3140625 -1.13015625 5.128125 -1.1328125 3.90625 C-1 1 -1 1 0 0 Z " fill="#58194F" transform="translate(22,118)"/>
</svg>
